HIERARCHY
ROOT Hips
{
    OFFSET 6.154644966125488 56.94024848937988 -12.193470001220703
    CHANNELS 6 Xposition Yposition Zposition Zrotation Xrotation Yrotation
    JOINT RightUpLeg
    {
        OFFSET -6.154644966125488 0.0 0.0
        CHANNELS 3 Zrotation Xrotation Yrotation
        JOINT RightLeg
        {
            OFFSET 0.0 -26.456573486328125 0.0
            CHANNELS 3 Zrotation Xrotation Yrotation
            JOINT RightFoot
            {
                OFFSET 0.0 -30.483675003051758 0.0
                CHANNELS 3 Zrotation Xrotation Yrotation
                End Site RightFoot_End
                {
                    OFFSET 0.0 0.0 12.193470001220703
                }
            }
        }
    }
    JOINT LeftUpLeg
    {
        OFFSET 6.154644966125488 0.0 0.0
        CHANNELS 3 Zrotation Xrotation Yrotation
        JOINT LeftLeg
        {
            OFFSET 0.0 -26.456573486328125 0.0
            CHANNELS 3 Zrotation Xrotation Yrotation
            JOINT LeftFoot
            {
                OFFSET 0.0 -30.483675003051758 0.0
                CHANNELS 3 Zrotation Xrotation Yrotation
                End Site LeftFoot_End
                {
                    OFFSET 0.0 0.0 12.193470001220703
                }
            }
        }
    }
    JOINT Spine
    {
        OFFSET 0.0 19.46894645690918 0.0
        CHANNELS 3 Zrotation Xrotation Yrotation
        JOINT Spine3
        {
            OFFSET 0.0 19.795303344726562 0.0
            CHANNELS 3 Zrotation Xrotation Yrotation
            JOINT Neck
            {
                OFFSET 0.0 11.703651428222656 0.0
                CHANNELS 3 Zrotation Xrotation Yrotation
                End Site Head
                {
                    OFFSET 0.0 4.681460857391357 0.0
                }
            }
            JOINT LeftArm
            {
                OFFSET 9.203409194946289 0.0 0.0
                CHANNELS 3 Zrotation Xrotation Yrotation
                JOINT LeftForeArm
                {
                    OFFSET 24.427261352539062 0.0 0.0
                    CHANNELS 3 Zrotation Xrotation Yrotation
                    JOINT LeftHand
                    {
                        OFFSET 14.680553436279297 0.0 0.0
                        CHANNELS 3 Zrotation Xrotation Yrotation
                        End Site LeftWristEndSite
                        {
                            OFFSET 5.872220993041992 0.0 0.0
                        }
                    }
                }
            }
            JOINT RightArm
            {
                OFFSET -9.203409194946289 0.0 0.0
                CHANNELS 3 Zrotation Xrotation Yrotation
                JOINT RightForeArm
                {
                    OFFSET -24.427261352539062 0.0 0.0
                    CHANNELS 3 Zrotation Xrotation Yrotation
                    JOINT RightHand
                    {
                        OFFSET -14.680553436279297 0.0 0.0
                        CHANNELS 3 Zrotation Xrotation Yrotation
                        End Site RightWristEndSite
                        {
                            OFFSET -5.872220993041992 0.0 0.0
                        }
                    }
                }
            }
        }
    }
}
MOTION
Frames: 5
Frame Time: 0.03333333333333333
-0.0 69.04319763183594 0.0 -1.0313559232312401 1.2488808550450157 -49.22753775118688 -14.4611352979029 -3.2890504693783025 4.405017765482261 52.23989185459618 17.02031421388173 -31.025455097045754 3.1805546814635168e-15 -4.4139062980501586e-32 -1.5902773407317584e-15 -13.206750638904103 -24.145593936768368 -32.84649281859738 30.428651445138307 54.35178504592747 11.281229115562391 -8.276074308844047e-33 1.5902773407317584e-15 5.963540027744094e-16 -3.179666601831588 3.281293812696723 0.46249459311391544 3.690925694240422e-07 -6.208952804823903e-07 10.193921578352933 14.957076777175399 14.896466836271127 154.57119240760642 -55.82212349124376 -45.584163597198284 16.282266896596138 -107.23553385562052 -1.769193867257784e-07 9.137904997064898e-07 7.951386703658792e-16 -3.975693351829396e-16 2.758691436281349e-33 130.22914841506963 -4.74180859940075 24.141299598618495 25.9754151892823 2.6307162880046556e-06 -1.59601959702041e-06 -6.3611093629270335e-15 -3.531125038440127e-31 6.3611093629270335e-15
-0.0 69.04319763183594 0.0 -0.8109522135418692 1.148508418233499 -45.51224638743568 -13.922228578949591 -2.3502196076076527 3.9317962621664053 51.41876469095359 15.652073489592158 -27.871796399085316 6.361109362927033e-15 2.2069531490250793e-32 3.9756933518293955e-16 -12.768501685543622 -23.387945854403174 -30.47806832991872 31.32979393207868 50.924270439710455 9.405049051795869 -6.3611093629270335e-15 2.2069531490250793e-32 -3.975693351829396e-16 -3.0762067388535064 3.6624335662584744 0.47835055674366517 -1.5043235874357694e-08 1.543888337548177e-07 9.869624697355286 16.214325211017304 13.390203304621762 154.0155287287624 -57.092367131599616 -46.0876840645486 14.850711809028507 -105.47953678459855 5.27327011665185e-07 -2.5447379346970443e-06 0.0 0.0 -3.1805546814635168e-15 136.77849362775842 -9.619190071080475 37.540135944375024 23.219208287341896 -5.087657659082132e-07 6.377712861289386e-06 0.0 0.0 0.0
-0.0 69.04319763183594 0.0 -0.9473173764829808 1.2749597701966227 -43.326782443561044 -13.407007286109462 -1.7734075659744848 3.3914746605997372 51.809671784400265 15.557480932037475 -27.2109902893658 0.0 0.0 5.168401357378215e-15 -11.347282204500411 -22.748178492470416 -28.215990154014744 28.166392097779426 47.8171166319147 10.900511197266166 -3.1805546814635168e-15 -9.931289170612858e-32 3.578124016646457e-15 -2.686038454386298 3.8911060404436664 0.5464653908299565 -1.7897439393699067e-07 1.017707822184439e-06 9.032887633546478 19.578527530061255 13.032637422096983 133.9103408569445 -57.45584406176514 -47.90542124952855 14.665947263851006 -104.0729348006834 -1.158815000419601e-06 -3.095495750517335e-06 1.5902773407317584e-15 3.975693351829396e-16 -5.517382872562698e-33 152.10535764501097 -13.703215453696208 86.83144782761511 18.7639066189708 1.3774950624957595e-06 -2.9804570296893637e-06 -1.5902773407317588e-15 7.951386703658794e-16 1.1034765745125397e-32
-0.0 69.04319763183594 0.0 -1.0256893513456642 1.3032852343244123 -43.948029138678116 -13.858757846312715 -2.100651332360538 3.29322981665867 52.04390883515074 16.17100798977774 -27.893961849254787 0.0 0.0 3.1805546814635168e-15 -11.2835179950497 -23.038344740873033 -27.43701935001054 28.65384498471807 47.98261262895485 9.802204378782406 -3.1805546814635168e-15 -1.462106461229115e-31 5.267793691173949e-15 -2.627338679002504 3.9254318819015666 0.49893766189534833 7.238262429425726e-07 -1.7442299961300764e-07 9.780760360766415 20.12906224468667 12.894441765150335 131.75683372562187 -56.95527506117682 -47.63949311542046 15.348144874656377 -104.86385008186383 -4.967244016101351e-07 -9.565199876032072e-07 0.0 0.0 0.0 152.08158189593743 -13.681907990950563 87.24243261158993 18.765181197693 -3.7608745087969967e-06 8.92803352141386e-06 -3.1805546814635168e-15 -3.1805546814635168e-15 -8.827812596100317e-32
-0.0 69.04319763183594 0.0 -1.5219576084898603 1.490881601010829 -39.571993831317954 -11.900248424821656 -1.058392331902566 1.9618867462847602 47.36942874609531 16.218666204028533 -24.02160031316247 3.1805546814635168e-15 7.724336021587778e-32 2.782985346280577e-15 -11.446019172848121 -22.768499674726105 -23.449756311578074 29.766404106663504 44.534076508619 7.257473995274889 -3.1805546814635168e-15 -7.172597734331508e-32 2.5842006786891076e-15 -0.739860591813706 4.947616465339927 0.49329430617271225 -3.017503472371655e-08 -9.1345245025878e-07 7.9879820175104275 21.955343749238246 11.717015342719174 115.31880488387127 -47.39025017107703 -59.271154793028394 31.095192176021886 -107.25105938997305 -1.5521467381165363e-06 1.9847802071536847e-06 0.0 0.0 0.0 -155.3947462249299 -16.976120877281563 163.89812961998683 58.700064646511414 -8.471167320773497e-08 8.269932284863859e-07 -3.776908684237925e-15 -2.6207568644672815e-32 7.951386703658791e-16
